<?xml version="1.0" standalone="no"?>
<!DOCTYPE svg PUBLIC "-//W3C//DTD SVG 20010904//EN"
 "http://www.w3.org/TR/2001/REC-SVG-20010904/DTD/svg10.dtd">
<svg version="1.0" xmlns="http://www.w3.org/2000/svg"
 width="713.000000pt" height="713.000000pt" viewBox="0 0 713.000000 713.000000"
 preserveAspectRatio="xMidYMid meet">
<metadata>
Created by potrace 1.11, written by Peter Selinger 2001-2013
</metadata>
<g transform="translate(0.000000,713.000000) scale(0.100000,-0.100000)"
fill="#000000" stroke="none">
<path d="M774 6701 c-41 -10 -92 -42 -126 -78 -78 -81 -93 -214 -59 -518 41
-364 94 -614 171 -810 15 -38 38 -105 50 -149 l22 -78 -30 -32 c-52 -56 -114
-147 -144 -215 -17 -36 -50 -100 -73 -141 -42 -72 -126 -286 -159 -400 -27
-96 -46 -221 -56 -370 -26 -384 0 -563 115 -806 30 -64 55 -121 55 -125 0 -5
-10 -26 -23 -47 -42 -69 -108 -222 -127 -297 -11 -42 -24 -121 -30 -176 -27
-264 3 -373 139 -510 58 -58 94 -85 151 -111 78 -37 202 -82 256 -93 l31 -6 6
-117 c7 -145 44 -283 115 -427 60 -122 117 -199 216 -293 187 -177 335 -231
650 -233 77 -1 186 -4 240 -8 l99 -6 66 -126 c86 -162 196 -323 265 -387 148
-135 306 -103 547 110 139 124 246 236 322 340 85 115 109 115 194 0 140 -190
400 -429 536 -493 131 -61 233 -48 333 43 69 64 179 225 265 387 l66 126 99 6
c54 4 163 7 240 8 144 1 276 18 373 48 111 34 296 182 398 317 116 155 201
391 210 586 l6 115 72 18 c104 25 241 81 303 123 67 47 154 140 180 196 42 86
55 164 49 288 -8 143 -30 271 -61 352 -23 63 -90 204 -116 245 -12 19 -8 33
43 141 117 249 143 430 117 812 -17 238 -42 346 -140 610 -17 47 -51 119 -74
160 -24 41 -57 105 -74 141 -31 68 -92 159 -145 216 l-29 31 30 99 c16 54 44
136 60 183 73 206 111 393 153 750 35 309 19 441 -64 528 -52 55 -102 76 -182
76 -79 0 -139 -23 -274 -107 -41 -26 -108 -61 -150 -78 -42 -17 -170 -90 -284
-161 -115 -72 -283 -172 -375 -223 -92 -51 -215 -122 -274 -158 l-106 -64 -44
24 c-140 81 -325 159 -491 207 -45 14 -122 38 -172 54 -180 61 -220 65 -565
65 -345 0 -385 -4 -565 -65 -49 -16 -127 -40 -172 -54 -138 -40 -292 -102
-418 -169 -110 -58 -122 -62 -140 -48 -31 22 -236 142 -375 218 -69 38 -224
130 -345 206 -121 75 -254 151 -296 168 -42 17 -109 52 -150 78 -151 94 -253
125 -335 104z m546 -806 c102 -65 253 -155 335 -200 83 -46 191 -108 240 -139
186 -115 175 -111 310 -108 129 3 213 20 284 58 25 13 49 24 53 24 5 0 36 13
70 29 80 37 519 177 633 202 83 18 567 18 650 0 114 -25 551 -164 632 -202 34
-16 66 -29 70 -29 5 0 29 -11 54 -24 71 -38 155 -55 284 -58 135 -3 124 -7
310 108 50 31 158 93 240 139 83 45 240 139 349 209 110 69 201 125 202 123
10 -10 -63 -366 -96 -472 -66 -209 -94 -353 -94 -480 -1 -122 16 -171 71 -215
37 -29 98 -122 124 -190 12 -30 48 -109 79 -175 69 -142 136 -355 150 -477 6
-48 11 -171 12 -275 3 -249 -11 -297 -161 -577 -41 -76 -44 -169 -8 -237 13
-24 26 -67 30 -95 3 -32 24 -87 56 -150 57 -113 77 -179 86 -292 7 -77 6 -81
-16 -95 -89 -57 -258 -74 -337 -35 -90 46 -171 126 -236 234 -85 141 -108 168
-168 198 -103 52 -231 26 -310 -62 -50 -56 -69 -103 -75 -192 -11 -165 -66
-232 -277 -336 -120 -60 -133 -64 -198 -64 -74 0 -109 13 -144 52 -28 31 -61
115 -75 191 -22 115 -68 305 -82 339 -71 169 -312 206 -432 66 -42 -50 -65
-115 -65 -187 0 -106 -26 -217 -71 -301 -23 -43 -52 -91 -65 -107 l-22 -28
-142 0 -142 0 -22 28 c-13 16 -42 64 -65 107 -45 84 -71 195 -71 301 0 72 -23
137 -65 187 -120 140 -361 103 -432 -66 -14 -34 -62 -231 -82 -339 -14 -75
-47 -160 -75 -191 -35 -39 -70 -52 -146 -52 -66 0 -77 4 -195 62 -211 104
-267 173 -278 338 -6 89 -25 136 -75 192 -51 57 -121 88 -197 88 -117 -1 -176
-47 -279 -220 -67 -112 -146 -192 -238 -238 -63 -31 -160 -30 -258 3 -104 35
-103 35 -95 128 9 112 29 178 86 291 32 63 53 118 56 150 4 28 17 72 30 97 35
72 32 159 -8 235 -120 224 -144 289 -159 426 -10 96 3 408 20 498 17 91 89
300 131 385 23 44 56 118 75 165 39 95 92 181 136 218 76 64 94 176 58 378
-12 71 -35 170 -50 219 -57 182 -80 273 -100 395 -11 69 -23 138 -26 153 -7
35 -23 43 216 -108z m365 -4016 c87 -90 203 -169 370 -250 210 -104 246 -112
449 -107 146 3 167 6 224 30 85 35 163 83 228 141 l54 49 58 -52 c125 -112
312 -166 537 -157 214 9 355 57 468 157 l57 52 54 -49 c65 -58 143 -106 228
-141 57 -24 78 -27 224 -30 203 -5 239 4 444 104 176 86 254 138 356 236 l71
69 75 -53 c42 -29 90 -61 108 -71 32 -17 32 -18 26 -70 -12 -97 -48 -222 -84
-297 -40 -81 -150 -203 -213 -236 -37 -19 -157 -28 -511 -38 -207 -6 -266 -14
-326 -45 -61 -32 -92 -74 -187 -254 -49 -95 -95 -181 -102 -192 -11 -19 -17
-15 -98 65 -47 47 -110 119 -139 160 -103 145 -124 163 -282 242 -138 68 -149
72 -214 72 -65 0 -76 -4 -214 -72 -158 -79 -179 -97 -282 -242 -29 -41 -92
-113 -139 -160 -81 -80 -87 -84 -98 -65 -7 11 -53 97 -102 192 -95 180 -126
222 -187 254 -71 37 -74 37 -583 54 -99 4 -197 11 -217 16 -103 26 -236 183
-288 340 -20 59 -50 204 -50 239 0 8 28 30 63 48 34 17 85 50 112 72 28 21 52
39 55 39 3 1 28 -22 55 -50z"/>
<path d="M1648 4571 c-74 -24 -149 -72 -194 -124 -48 -57 -67 -129 -62 -233 4
-69 10 -94 39 -151 71 -143 175 -210 339 -220 142 -9 266 31 362 116 66 58 90
113 96 220 10 184 -59 306 -216 379 -51 24 -71 27 -182 29 -101 2 -136 -1
-182 -16z"/>
<path d="M5175 4576 c-183 -58 -274 -196 -263 -397 6 -107 30 -162 96 -220 96
-85 220 -125 362 -116 164 10 268 77 339 220 64 126 53 294 -23 384 -46 53
-121 100 -197 124 -72 22 -250 25 -314 5z"/>
<path d="M3140 3805 c-138 -62 -187 -201 -121 -340 46 -99 116 -145 218 -145
107 1 193 65 229 171 40 121 5 234 -91 294 -41 25 -60 30 -124 33 -52 1 -87
-3 -111 -13z"/>
<path d="M3782 3794 c-76 -38 -125 -115 -125 -199 -1 -107 62 -217 148 -256
48 -22 142 -25 189 -5 125 52 193 227 136 349 -58 123 -220 175 -348 111z"/>
</g>
</svg>
